<svg width="112" height="108" viewBox="0 0 112 108" fill="none" xmlns="http://www.w3.org/2000/svg">
<path d="M108.388 0.0873146C109.766 -0.131717 111.174 -0.0209649 111.885 1.39119C112.049 1.71562 112.002 2.74406 111.959 3.14691C111.511 7.31254 110.935 11.4661 110.425 15.6246C110.049 18.5276 109.788 21.9344 109.086 24.7714C108.98 25.1985 108.349 25.6544 107.941 25.833C104.744 27.2326 103.887 23.3171 100.715 22.0552C98.4016 23.1705 96.7185 25.2287 94.9061 27.0454L87.1194 34.8428C83.1449 38.8163 84.7283 37.3704 79.6802 37.2264C70.3291 36.9595 62.5628 41.6315 58.075 49.8041C55.1505 47.3387 49.6271 40.5012 46.7094 39.3197C44.6283 39.9878 43.5282 41.5669 42.0357 43.0543C40.9061 44.1799 39.7839 45.3129 38.6553 46.4397L20.1672 64.9219L14.3278 70.7686C12.4509 72.6458 11.0951 74.463 8.52445 75.3232C6.08 74.5482 3.87826 71.7474 1.93659 69.8998C-0.206394 67.6796 -0.880497 66.4982 1.5184 64.0343C4.05615 61.4277 6.69395 58.8775 9.26337 56.3036L25.9649 39.593L37.9585 27.5982C39.8767 25.6807 41.7417 23.6836 43.7671 21.885C47.0556 18.9646 49.4078 22.2123 51.6395 24.3793C54.1093 26.7446 56.5554 29.1347 58.9774 31.549C60.5988 33.1604 63.0193 36.1251 65.1462 36.6822C65.5907 36.5572 66.2077 36.42 66.5474 36.1256C67.7229 35.1069 68.8407 33.9306 69.9366 32.826L75.5524 27.1795L84.7854 17.9232C86.6613 16.0499 88.7788 14.0188 90.5706 12.0965C88.9811 10.5394 81.125 4.51509 87.2531 2.47769C88.4297 2.08654 92.06 1.9107 93.5337 1.74796C98.4889 1.22964 103.44 0.676073 108.388 0.0873146Z" fill="black"/>
<path d="M99.2017 33.0936C99.3351 33.0787 99.4688 33.0671 99.6029 33.0587C100.417 33.0102 101.227 33.2591 101.842 33.7947C102.632 34.483 102.965 35.6836 102.972 36.7085C102.986 38.6313 102.972 40.5792 102.968 42.5052L102.93 53.4819L102.957 74.6948L102.961 93.8492C102.964 97.2676 103.012 100.704 102.916 104.118C102.861 106.056 101.134 107.068 99.3467 107.034C95.5908 106.961 91.8075 107.128 88.0572 106.962C87.5401 106.889 86.8401 106.598 86.4931 106.215C85.3012 104.899 85.6414 102.176 85.6618 100.497C85.6823 94.0828 85.6673 87.6689 85.6168 81.2553C89.7191 79.3503 92.7175 78.182 95.8919 74.6765C103.878 65.857 103.511 52.2121 95.3016 43.6745C94.1062 42.4315 92.6597 41.403 91.3755 40.2488C91.9048 39.6056 93.1672 38.395 93.7788 37.7649C95.0864 36.4182 97.397 33.5997 99.2017 33.0936Z" fill="black"/>
<path d="M48.6257 54.1035C49.1555 54.1476 49.86 54.0997 50.3531 54.4445C51.6213 55.3316 54.8375 58.3401 55.5836 59.5132C56.0046 61.3495 56.1571 63.4641 56.4693 65.3425C56.748 67.0193 59.4844 71.4413 59.5509 72.3209C59.8188 75.8656 59.6763 79.8588 59.6724 83.4002L59.668 96.0956C59.6707 98.6238 59.6753 101.145 59.6448 103.673C59.6218 105.568 59.1449 106.505 57.151 106.982C54.4011 107.17 51.2107 107.035 48.4341 106.976C47.213 106.95 46.0819 106.004 45.9937 104.719C45.8531 102.673 45.9013 100.562 45.9015 98.4901L45.9042 86.1229L45.9002 67.07C45.8958 63.7167 45.8614 60.3609 45.9233 57.0089C45.9567 55.1934 46.8234 54.3207 48.6257 54.1035Z" fill="black"/>
<path d="M37.122 58.3305C39.5155 57.924 41.0919 59.1081 41.1723 61.5827C41.2376 63.5902 41.2147 65.5866 41.2138 67.5949L41.2078 78.9909L41.2126 94.9589C41.2133 97.7024 41.2321 100.483 41.1935 103.22C41.0909 104.103 41.1785 105.284 40.4708 105.921C38.5452 107.655 33.9556 107.033 31.3361 107.031C28.3318 107.029 27.176 106.609 27.159 103.392C27.1467 101.057 27.1452 98.6916 27.148 96.3547L27.1496 83.6157L27.1453 74.476C27.1438 73.4983 27.0563 68.8486 27.3662 68.0731C27.7373 67.1446 29.905 64.9721 30.7654 64.2004C32.6047 62.5507 35.0586 59.4579 37.122 58.3305Z" fill="black"/>
<path d="M18.8907 75.9471C18.9784 75.943 19.0662 75.9405 19.154 75.94C22.1257 75.9033 22.4264 77.821 22.4443 80.2311L22.4474 97.1734C22.4475 99.6741 22.5022 102.206 22.3803 104.697C22.3405 105.513 21.1682 106.727 20.3738 106.835C17.582 107.213 14.513 107.037 11.6746 107.028C8.48182 106.985 7.89704 105.243 8.12457 102.231C8.30579 99.8321 7.71305 87.3997 8.43689 85.9774C9.25531 84.3692 17.4176 76.4769 18.8907 75.9471Z" fill="black"/>
<path d="M64.5218 77.6133C65.3509 77.9872 66.9263 79.084 67.9003 79.5774C72.1582 81.7348 74.974 81.7818 79.3962 82.3516C79.3168 87.3016 79.2974 92.2523 79.3378 97.2027C79.3399 99.6312 79.4069 102.3 79.1951 104.727C79.1519 105.222 78.7493 105.783 78.4379 106.161C77.0369 107.301 75.3963 107.072 73.6872 107.03C71.535 106.977 69.3649 107.086 67.219 107.008C66.626 106.987 64.9748 106.338 64.8281 105.799C64.1773 103.406 64.4224 100.247 64.432 97.761L64.4431 87.9009L64.4441 81.4388C64.4432 80.3843 64.3838 78.6004 64.5218 77.6133Z" fill="black"/>
<path d="M99.2744 59.5981C99.2744 70.9396 90.0803 80.1337 78.7387 80.1337C67.3972 80.1337 58.2031 70.9396 58.2031 59.5981C58.2031 48.2566 67.3972 39.0625 78.7387 39.0625C90.0803 39.0625 99.2744 48.2566 99.2744 59.5981ZM60.2829 59.5981C60.2829 69.791 68.5459 78.054 78.7387 78.054C88.9316 78.054 97.1946 69.791 97.1946 59.5981C97.1946 49.4052 88.9316 41.1423 78.7387 41.1423C68.5459 41.1423 60.2829 49.4052 60.2829 59.5981Z" fill="black"/>
<path d="M81.6882 59.599C84.7045 59.599 87.1498 57.1537 87.1498 54.1374C87.1498 51.121 84.7045 48.6758 81.6882 48.6758C78.6718 48.6758 76.2266 51.121 76.2266 54.1374C76.2266 57.1537 78.6718 59.599 81.6882 59.599Z" fill="black"/>
<path d="M81.6898 70.5217C81.6898 70.5217 92.613 70.5217 92.613 67.7909C92.613 64.5139 87.288 60.9639 81.6898 60.9639C76.0917 60.9639 70.7666 64.5139 70.7666 67.7909C70.7666 70.5217 81.6898 70.5217 81.6898 70.5217ZM69.4012 56.8677V52.7715H66.6704V56.8677H62.5742V59.5985H66.6704V63.6947H69.4012V59.5985H73.4974V56.8677H69.4012Z" fill="black"/>
</svg>
